
        <svg xmlns="http://www.w3.org/2000/svg" xmlns:xlink="http://www.w3.org/1999/xlink" version="1.1" width="3300" 
        height="2710.3290662518284" viewBox="0 0 3300 2710.3290662518284">
			
			<g transform="scale(15) translate(10, 10)">
				<defs id="SvgjsDefs2123"></defs><g id="SvgjsG2124" featureKey="JiLV9t-0" transform="matrix(0.7808210821692185,0,0,0.7808210821692185,50,-5.856158116269139)" fill="#f73859"><path xmlns="http://www.w3.org/2000/svg" d="M71.9,74.2c0.1,0,0.2,0.1,0.3,0.1c0.4,0,0.8-0.3,1-0.7l2.5-7c0.2-0.5-0.1-1.1-0.6-1.3c-0.5-0.2-1.1,0.1-1.3,0.6l-2.5,7  C71.1,73.5,71.4,74,71.9,74.2z"></path><path xmlns="http://www.w3.org/2000/svg" d="M69.5,59.1l-6.6,3.1c-0.5,0.2-0.7,0.9-0.5,1.4c0.2,0.4,0.5,0.6,0.9,0.6c0.1,0,0.3,0,0.4-0.1l6.6-3.1  c0.5-0.2,0.7-0.9,0.5-1.4C70.6,59.1,70,58.9,69.5,59.1z"></path><path xmlns="http://www.w3.org/2000/svg" d="M71.8,52.5c0.2-0.5-0.1-1.1-0.6-1.3l-6.9-2.5c-0.5-0.2-1.1,0.1-1.3,0.6c-0.2,0.5,0.1,1.1,0.6,1.3l6.9,2.5  c0.1,0,0.2,0.1,0.4,0.1C71.3,53.2,71.6,52.9,71.8,52.5z"></path><path xmlns="http://www.w3.org/2000/svg" d="M77,48.3c0.1,0,0.3,0,0.4-0.1c0.5-0.2,0.7-0.9,0.5-1.4l-3.1-6.7c-0.2-0.5-0.9-0.7-1.4-0.5C73,39.8,72.8,40.5,73,41l3.1,6.7  C76.3,48,76.6,48.3,77,48.3z"></path><path xmlns="http://www.w3.org/2000/svg" d="M84.9,49.2c0.4,0,0.8-0.3,1-0.7l2.5-7c0.2-0.5-0.1-1.1-0.6-1.3c-0.5-0.2-1.1,0.1-1.3,0.6l-2.5,7c-0.2,0.5,0.1,1.1,0.6,1.3  C84.6,49.2,84.7,49.2,84.9,49.2z"></path><path xmlns="http://www.w3.org/2000/svg" d="M89.7,55.5c0.1,0,0.3,0,0.4-0.1l6.6-3.1c0.5-0.2,0.7-0.9,0.5-1.4c-0.2-0.5-0.9-0.7-1.4-0.5l-6.6,3.1  c-0.5,0.2-0.7,0.9-0.5,1.4C89,55.2,89.4,55.5,89.7,55.5z"></path><path xmlns="http://www.w3.org/2000/svg" d="M117.5,27.1H30.8c-3-14.1-11.2-15-11.9-15.1h-6.3c-1-2.4-3.3-4.5-6.1-4.5C2.9,7.5,0,10.4,0,14c0,3.6,2.9,6.6,6.5,6.6  c2.8,0,5.1-2.2,6.1-4.6h5.9c0.2,0,5.7,1.7,7.8,13.2c2.7,15.3,9.7,53.7,9.7,53.7c0,4.3,2.6,12.1,12.2,12.1h37l-1.5-3.9H48.1  c-4.1,0-5.9-3-6.7-5.1c6.5-0.4,24.3-1.6,40-2.7L80,78.4c-16,1.1-33.7,2.3-39.4,2.7C39.3,74.6,34.4,47,31.7,32h85.1  c3.9,0,6.7,3.2,6.2,7.1l-3.6,29.4c0,0.1-0.1,0.7-0.5,1.5l4.4,2.2c0.8-1.7,1-2.9,1-3.1l3.7-30.2C128.7,32.4,124.1,27.1,117.5,27.1z"></path><path xmlns="http://www.w3.org/2000/svg" d="M107.7,80.5l8.4-3.3c0.8-0.3,1.3-1,1.3-1.8c0-0.8-0.4-1.6-1.1-2L80.9,55.5c-0.7-0.4-1.6-0.3-2.3,0.3  C78,56.3,77.7,57.2,78,58l12,38.7c0.2,0.8,1,1.4,1.8,1.5c0.8,0.1,1.6-0.4,2-1.1l4.8-9.2l10.3,13.7c0.3,0.4,0.8,0.7,1.4,0.8  c0.1,0,0.2,0,0.3,0c0.4,0,0.9-0.1,1.3-0.4l6.3-4.9c0.4-0.3,0.7-0.8,0.8-1.4c0.1-0.6-0.1-1.1-0.4-1.6L107.7,80.5z M110.9,97.4  l-11-14.6c-0.4-0.5-1-0.8-1.6-0.8c-0.1,0-0.1,0-0.2,0c-0.7,0.1-1.3,0.5-1.7,1.1l-4,7.7l-9.1-29.3l26.9,13.6l-6.6,2.6  c-0.6,0.2-1.1,0.8-1.2,1.4c-0.2,0.6,0,1.3,0.4,1.8l11.2,14.2L110.9,97.4z"></path><path xmlns="http://www.w3.org/2000/svg" d="M99.2,103.7c-4.7,0-8.6,3.9-8.6,8.7c0,4.8,3.9,8.7,8.6,8.7c4.7,0,8.6-3.9,8.6-8.7C107.8,107.6,103.9,103.7,99.2,103.7z   M99.2,116.9c-2.5,0-4.5-2-4.5-4.5c0-2.5,2-4.5,4.5-4.5c2.5,0,4.5,2,4.5,4.5C103.7,114.8,101.7,116.9,99.2,116.9z"></path><path xmlns="http://www.w3.org/2000/svg" d="M49.7,103.7c-4.7,0-8.6,3.9-8.6,8.7c0,4.8,3.9,8.7,8.6,8.7c4.7,0,8.6-3.9,8.6-8.7C58.3,107.6,54.4,103.7,49.7,103.7z   M49.7,116.9c-2.5,0-4.5-2-4.5-4.5c0-2.5,2-4.5,4.5-4.5c2.5,0,4.5,2,4.5,4.5C54.2,114.8,52.2,116.9,49.7,116.9z"></path></g><g id="SvgjsG2125" featureKey="Yxc9Rz-0" transform="matrix(2.0391516748185334,0,0,2.0391516748185334,-0.6117439466962964,98.39640973519437)" fill="#f73859"><path d="M0.3 18.82 q0.06 -0.66 0.41 -1.32 t0.83 -1.08 q2.14 1.3 4.06 1.3 q0.84 0 1.23 -0.38 t0.39 -0.94 q0 -0.94 -1.26 -1.48 l-2.36 -1 q-1.38 -0.62 -2.12 -1.49 t-0.74 -2.21 q0 -0.92 0.37 -1.68 t1.04 -1.32 t1.59 -0.87 t2.04 -0.31 q2.24 0 4.52 1.14 q-0.1 1.54 -1.08 2.4 q-2.04 -0.98 -3.6 -0.98 q-0.8 0 -1.2 0.36 t-0.4 0.82 q0 0.78 1.18 1.26 l2.4 1.02 q1.52 0.64 2.27 1.64 t0.75 2.32 q0 0.94 -0.34 1.72 t-1.01 1.35 t-1.67 0.89 t-2.34 0.32 q-2.6 0 -4.96 -1.48 z M12.920000000000002 18.66 l-1.94 -8.46 q0.98 -0.36 1.7 -0.36 q0.74 0 1.06 0.32 t0.46 1.02 l0.62 3.22 q0.44 2.18 0.52 3.12 q0.02 0.18 0.16 0.18 l1.1 -7.58 q0.7 -0.14 1.84 -0.14 t1.82 0.14 l1.12 7.4 q0.02 0.18 0.16 0.18 q0.36 -2.38 0.54 -3.3 l0.9 -4.36 q0.48 -0.14 1.3 -0.14 q1.02 0 1.54 0.26 l0.1 0.2 l-2.34 9.64 q-0.74 0.12 -2 0.12 t-1.7 -0.28 t-0.56 -1.14 l-0.32 -2.14 q-0.3 -1.86 -0.52 -3.78 l-0.12 0 q-0.02 0.16 -0.52 3.74 l-0.56 3.48 q-0.96 0.12 -2.12 0.12 t-1.61 -0.3 t-0.63 -1.16 z M35.84 10.34 l-2.46 9.4 q-0.58 2.16 -1.54 3.32 q-1.1 1.32 -3.38 1.32 q-1.22 0 -2.42 -0.4 q-0.06 -0.54 0.12 -1.21 t0.5 -1.03 q0.9 0.3 1.8 0.3 q1.48 0 1.96 -1.62 l0.08 -0.28 q-1.74 0 -2.08 -1.26 l-2.32 -8.62 q0.92 -0.42 1.72 -0.42 t1.17 0.3 t0.55 1.04 l0.92 3.84 q0.14 0.54 0.46 2.64 q0.02 0.14 0.16 0.14 l1.74 -7.76 q0.48 -0.14 1.3 -0.14 q0.92 0 1.6 0.22 z M38.3 20 l0 -7.8 l-1.72 0.02 q-0.12 -0.5 -0.12 -1.1 t0.12 -1.12 l1.56 0.02 q-0.1 -0.74 -0.1 -1.34 q0 -1.5 0.97 -2.49 t2.53 -0.99 t3.06 0.56 q0.02 0.52 -0.18 1.13 t-0.5 0.93 q-0.94 -0.28 -1.54 -0.28 q-1.34 0 -1.34 1.38 q0 0.58 0.08 1.12 l2.62 -0.04 q0.12 0.52 0.12 1.12 t-0.12 1.1 l-2.4 -0.04 l0 7.82 q-0.68 0.12 -1.5 0.12 t-1.54 -0.12 z M50.74 10 q0.12 0.56 0.12 1.12 t-0.12 1.1 l-2.38 -0.04 l0 4.6 q0 0.94 0.88 0.94 l1.12 0 q0.26 0.72 0.26 1.32 t-0.08 0.86 q-1.48 0.2 -2.72 0.2 q-2.52 0 -2.52 -2.78 l0 -5.12 l-1.56 0.02 q-0.14 -0.5 -0.14 -1.09 t0.14 -1.13 l1.56 0.04 l0 -1.16 q0 -1.02 0.39 -1.45 t1.31 -0.43 l1.22 0 l0.14 0.14 l0 2.9 z M56.7 19.96 l1.06 -13.6 q0.88 -0.16 2.08 -0.16 t2.1 0.16 l1.18 4.9 q0.7 3.32 0.74 3.62 l0.14 0 q0.08 -0.5 0.74 -3.62 l1.2 -4.9 q0.88 -0.16 2.08 -0.16 t2.1 0.16 l1.06 13.6 q-0.62 0.16 -1.53 0.16 t-1.49 -0.1 l-0.32 -5.56 q-0.14 -3.32 -0.16 -4.62 l-0.12 0 l-1.98 8.14 q-0.72 0.12 -1.65 0.12 t-1.65 -0.12 l-1.96 -8.14 l-0.14 0 q0 1.78 -0.16 4.62 l-0.3 5.56 q-0.58 0.1 -1.49 0.1 t-1.53 -0.16 z M81.94 18.56 q-0.1 0.42 -0.38 0.9 t-0.58 0.7 q-1.4 -0.04 -2.16 -1.06 q-1.3 1.2 -2.82 1.2 q-0.78 0 -1.36 -0.25 t-0.98 -0.67 t-0.6 -0.97 t-0.2 -1.15 q0 -0.86 0.31 -1.51 t0.85 -1.08 t1.26 -0.65 t1.54 -0.22 q0.46 0 0.81 0.01 t0.61 0.03 l0 -0.38 q0 -1.26 -1.3 -1.26 q-0.84 0 -2.94 0.64 q-0.6 -0.7 -0.76 -2.18 q0.48 -0.18 1.07 -0.34 t1.21 -0.28 t1.22 -0.19 t1.08 -0.07 q0.7 0 1.35 0.2 t1.14 0.61 t0.78 1.06 t0.29 1.55 l0 4.06 q0 0.92 0.56 1.3 z M75.9 17.06 q0 0.94 1.08 0.94 q0.56 0 1.26 -0.58 l0 -1.6 q-0.4 -0.02 -0.67 -0.03 t-0.41 -0.01 q-1.26 0 -1.26 1.28 z M83.12 11.46 q0.1 -0.4 0.38 -0.89 t0.56 -0.71 q1.84 0.14 2.56 1.82 q0.76 -1.8 2.5 -1.8 q0.52 0 1.32 0.16 q0 0.62 -0.21 1.47 t-0.57 1.45 q-0.34 -0.12 -1.02 -0.2 q-1 0 -1.64 1.02 l0 6.22 q-0.66 0.12 -1.55 0.12 t-1.57 -0.12 l0 -6.46 q0 -1.5 -0.76 -2.08 z M98.26000000000002 10 q0.12 0.56 0.12 1.12 t-0.12 1.1 l-2.38 -0.04 l0 4.6 q0 0.94 0.88 0.94 l1.12 0 q0.26 0.72 0.26 1.32 t-0.08 0.86 q-1.48 0.2 -2.72 0.2 q-2.52 0 -2.52 -2.78 l0 -5.12 l-1.56 0.02 q-0.14 -0.5 -0.14 -1.09 t0.14 -1.13 l1.56 0.04 l0 -1.16 q0 -1.02 0.39 -1.45 t1.31 -0.43 l1.22 0 l0.14 0.14 l0 2.9 z"></path></g><g id="SvgjsG2126" featureKey="zc75Em-0" transform="matrix(0.15667840631074303,0,0,0.15667840631074303,19.896592350452224,157.14140539354224)" fill="#f73859"><path d="M5.88 5.48 c1.84 0 3.2 0.54006 4.08 1.6201 l-1.56 1.42 c-0.24 -0.37334 -0.58 -0.67334 -1.02 -0.9 s-0.94666 -0.34 -1.52 -0.34 c-0.82666 0 -1.49 0.20334 -1.99 0.61 s-0.75 0.93 -0.75 1.57 c0 1.0667 0.70666 1.8133 2.12 2.24 l1.78 0.58 c1 0.32 1.7633 0.76666 2.29 1.34 s0.79 1.36 0.79 2.36 c0 1.3067 -0.46334 2.3634 -1.39 3.17 s-2.1034 1.21 -3.53 1.21 c-2.04 0 -3.5466 -0.65334 -4.52 -1.96 l1.58 -1.36 c0.30666 0.48 0.72666 0.85334 1.26 1.12 s1.1133 0.4 1.74 0.4 c0.78666 0 1.4533 -0.22666 2 -0.68 s0.82 -1.0133 0.82 -1.68 c0 -0.49334 -0.16666 -0.90668 -0.5 -1.24 s-0.93334 -0.63334 -1.8 -0.9 l-1.26 -0.42 c-1.2667 -0.42666 -2.1534 -0.97 -2.66 -1.63 s-0.76 -1.51 -0.76 -2.55 c0 -1.1067 0.44666 -2.0466 1.34 -2.82 s2.0466 -1.16 3.46 -1.16 z M35.160000000000004 5.84 l0 1.8 l-4.56 0 l0 12.36 l-1.92 0 l0 -12.36 l-4.56 0 l0 -1.8 l11.04 0 z M50.42 5.84 l3.86 6.22 l3.98 -6.22 l2.34 0 l-5.36 8.12 l0 6.04 l-1.92 0 l0 -6.04 l-5.36 -8.12 l2.46 0 z M76.92 5.84 l0 12.36 l6.5 0 l0 1.8 l-8.42 0 l0 -14.16 l1.92 0 z M107.30000000000001 5.84 l0 1.8 l-7.22 0 l0 4.22 l6.72 0 l0 1.8 l-6.72 0 l0 4.54 l7.58 0 l0 1.8 l-9.5 0 l0 -14.16 l9.14 0 z M143.42000000000002 5.84 l0 14.16 l-1.92 0 l0 -14.16 l1.92 0 z M162.36 5.84 l7.8 11.64 l0.04 0 l0 -11.64 l1.92 0 l0 14.16 l-2.44 0 l-7.88 -11.64 l-0.04 0 l0 11.64 l-1.92 0 l0 -14.16 l2.52 0 z M216.02000000000004 5.84 l0 1.8 l-7.22 0 l0 4.22 l6.72 0 l0 1.8 l-6.72 0 l0 4.54 l7.58 0 l0 1.8 l-9.5 0 l0 -14.16 l9.14 0 z M232.16000000000003 5.84 l4.16 11.52 l0.04 0 l4.32 -11.52 l2.1 0 l-5.58 14.16 l-1.8 0 l-5.46 -14.16 l2.22 0 z M266.40000000000003 5.84 l0 1.8 l-7.22 0 l0 4.22 l6.72 0 l0 1.8 l-6.72 0 l0 4.54 l7.58 0 l0 1.8 l-9.5 0 l0 -14.16 l9.14 0 z M287.34000000000003 5.84 c1.3867 0 2.4734 0.34666 3.26 1.04 s1.18 1.6667 1.18 2.92 c0 0.94666 -0.32334 1.7733 -0.97 2.48 s-1.4767 1.1267 -2.49 1.26 l-0.02 0 l4.02 6.46 l-2.4 0 l-3.6 -6.24 l-2.14 0 l0 6.24 l-1.92 0 l0 -14.16 l5.08 0 z M286.78000000000003 12.08 c1 0 1.7433 -0.18336 2.23 -0.55002 s0.73 -0.94332 0.73 -1.73 c0 -1.52 -0.98666 -2.28 -2.96 -2.28 l-2.6 0 l0 4.56 l2.6 0 z M307.34000000000003 5.84 l3.86 6.22 l3.98 -6.22 l2.34 0 l-5.36 8.12 l0 6.04 l-1.92 0 l0 -6.04 l-5.36 -8.12 l2.46 0 z M354.32000000000005 5.48 c1.84 0 3.2 0.54006 4.08 1.6201 l-1.56 1.42 c-0.24 -0.37334 -0.58 -0.67334 -1.02 -0.9 s-0.94666 -0.34 -1.52 -0.34 c-0.82666 0 -1.49 0.20334 -1.99 0.61 s-0.75 0.93 -0.75 1.57 c0 1.0667 0.70666 1.8133 2.12 2.24 l1.78 0.58 c1 0.32 1.7633 0.76666 2.29 1.34 s0.79 1.36 0.79 2.36 c0 1.3067 -0.46334 2.3634 -1.39 3.17 s-2.1034 1.21 -3.53 1.21 c-2.04 0 -3.5466 -0.65334 -4.52 -1.96 l1.58 -1.36 c0.30666 0.48 0.72666 0.85334 1.26 1.12 s1.1133 0.4 1.74 0.4 c0.78666 0 1.4533 -0.22666 2 -0.68 s0.82 -1.0133 0.82 -1.68 c0 -0.49334 -0.16666 -0.90668 -0.5 -1.24 s-0.93334 -0.63334 -1.8 -0.9 l-1.26 -0.42 c-1.2667 -0.42666 -2.1534 -0.97 -2.66 -1.63 s-0.76 -1.51 -0.76 -2.55 c0 -1.1067 0.44666 -2.0466 1.34 -2.82 s2.0466 -1.16 3.46 -1.16 z M383.6 5.84 l0 1.8 l-4.56 0 l0 12.36 l-1.92 0 l0 -12.36 l-4.56 0 l0 -1.8 l11.04 0 z M400.34000000000003 5.84 l0 14.16 l-1.92 0 l0 -14.16 l1.92 0 z M426.20000000000005 5.84 l0 1.8 l-4.56 0 l0 12.36 l-1.92 0 l0 -12.36 l-4.56 0 l0 -1.8 l11.04 0 z M447.52000000000004 5.48 c1 0 1.9367 0.18664 2.81 0.55998 s1.59 0.92 2.15 1.64 l-1.6 1.22 c-0.86666 -1.08 -2.0066 -1.62 -3.42 -1.62 c-1.5333 0 -2.7966 0.54666 -3.79 1.64 s-1.49 2.4666 -1.49 4.12 c0 1.6 0.49 2.92 1.47 3.96 s2.25 1.56 3.81 1.56 s2.7934 -0.63334 3.7 -1.9 l1.62 1.22 c-0.56 0.74666 -1.3067 1.3467 -2.24 1.8 s-1.9733 0.68 -3.12 0.68 c-1.36 0 -2.5934 -0.33 -3.7 -0.99 s-1.98 -1.5667 -2.62 -2.72 s-0.96 -2.3634 -0.96 -3.63 c0 -2.1866 0.68666 -3.99 2.06 -5.41 s3.1466 -2.13 5.32 -2.13 z M469.80000000000007 5.84 l0 5.88 l7.34 0 l0 -5.88 l1.92 0 l0 14.16 l-1.92 0 l0 -6.48 l-7.34 0 l0 6.48 l-1.92 0 l0 -14.16 l1.92 0 z M497.94000000000005 17.72 l-1.68 4.92 l-1.64 0 l1.38 -4.92 l1.94 0 z M536.2200000000001 5.48 c1.84 0 3.2 0.54006 4.08 1.6201 l-1.56 1.42 c-0.24 -0.37334 -0.58 -0.67334 -1.02 -0.9 s-0.94666 -0.34 -1.52 -0.34 c-0.82666 0 -1.49 0.20334 -1.99 0.61 s-0.75 0.93 -0.75 1.57 c0 1.0667 0.70666 1.8133 2.12 2.24 l1.78 0.58 c1 0.32 1.7633 0.76666 2.29 1.34 s0.79 1.36 0.79 2.36 c0 1.3067 -0.46334 2.3634 -1.39 3.17 s-2.1034 1.21 -3.53 1.21 c-2.04 0 -3.5466 -0.65334 -4.52 -1.96 l1.58 -1.36 c0.30666 0.48 0.72666 0.85334 1.26 1.12 s1.1133 0.4 1.74 0.4 c0.78666 0 1.4533 -0.22666 2 -0.68 s0.82 -1.0133 0.82 -1.68 c0 -0.49334 -0.16666 -0.90668 -0.5 -1.24 s-0.93334 -0.63334 -1.8 -0.9 l-1.26 -0.42 c-1.2667 -0.42666 -2.1534 -0.97 -2.66 -1.63 s-0.76 -1.51 -0.76 -2.55 c0 -1.1067 0.44666 -2.0466 1.34 -2.82 s2.0466 -1.16 3.46 -1.16 z M557.9800000000001 5.84 l0 5.88 l7.34 0 l0 -5.88 l1.92 0 l0 14.16 l-1.92 0 l0 -6.48 l-7.34 0 l0 6.48 l-1.92 0 l0 -14.16 l1.92 0 z M590.1600000000002 5.48 c2.1066 0 3.8634 0.69998 5.27 2.1 s2.11 3.18 2.11 5.34 c0 1.3733 -0.31334 2.63 -0.94 3.77 s-1.51 2.0366 -2.65 2.69 s-2.4034 0.98 -3.79 0.98 c-1.3733 0 -2.6266 -0.32334 -3.76 -0.97 s-2.02 -1.54 -2.66 -2.68 s-0.96 -2.4034 -0.96 -3.79 c0 -2.1066 0.69 -3.8734 2.07 -5.3 s3.15 -2.14 5.31 -2.14 z M584.8200000000002 12.92 c0 1.6 0.49998 2.94 1.5 4.02 s2.28 1.62 3.84 1.62 c1.5333 0 2.8066 -0.53334 3.82 -1.6 s1.52 -2.4134 1.52 -4.04 c0 -1.6133 -0.5 -2.9566 -1.5 -4.03 s-2.2866 -1.61 -3.86 -1.61 c-1.52 0 -2.7866 0.53334 -3.8 1.6 s-1.52 2.4134 -1.52 4.04 z M618.1600000000001 5.84 c1.3733 0 2.4566 0.34 3.25 1.02 s1.19 1.66 1.19 2.94 c0 1.24 -0.39334 2.21 -1.18 2.91 s-1.8733 1.05 -3.26 1.05 l-3.16 0 l0 6.24 l-1.92 0 l0 -14.16 l5.08 0 z M617.6000000000001 12.08 c1 0 1.7433 -0.18336 2.23 -0.55002 s0.73 -0.94332 0.73 -1.73 c0 -1.52 -0.98666 -2.28 -2.96 -2.28 l-2.6 0 l0 4.56 l2.6 0 z M663.8400000000001 8.44 l-3.42 11.56 l-2.02 0 l-4.14 -14.16 l2 0 l3.12 11.32 l0.04 0 l3.34 -11.32 l2.2 0 l3.34 11.32 l0.04 0 l3.12 -11.32 l2 0 l-4.12 14.16 l-2.02 0 l-3.44 -11.56 l-0.04 0 z M690.0000000000001 5.84 l0 14.16 l-1.92 0 l0 -14.16 l1.92 0 z M715.8600000000001 5.84 l0 1.8 l-4.56 0 l0 12.36 l-1.92 0 l0 -12.36 l-4.56 0 l0 -1.8 l11.04 0 z M732.6000000000001 5.84 l0 5.88 l7.34 0 l0 -5.88 l1.92 0 l0 14.16 l-1.92 0 l0 -6.48 l-7.34 0 l0 6.48 l-1.92 0 l0 -14.16 l1.92 0 z M783.1200000000002 5.48 c1 0 1.9367 0.18664 2.81 0.55998 s1.59 0.92 2.15 1.64 l-1.6 1.22 c-0.86666 -1.08 -2.0066 -1.62 -3.42 -1.62 c-1.5333 0 -2.7966 0.54666 -3.79 1.64 s-1.49 2.4666 -1.49 4.12 c0 1.6 0.49 2.92 1.47 3.96 s2.25 1.56 3.81 1.56 s2.7934 -0.63334 3.7 -1.9 l1.62 1.22 c-0.56 0.74666 -1.3067 1.3467 -2.24 1.8 s-1.9733 0.68 -3.12 0.68 c-1.36 0 -2.5934 -0.33 -3.7 -0.99 s-1.98 -1.5667 -2.62 -2.72 s-0.96 -2.3634 -0.96 -3.63 c0 -2.1866 0.68666 -3.99 2.06 -5.41 s3.1466 -2.13 5.32 -2.13 z M809.9800000000002 5.48 c2.1066 0 3.8634 0.69998 5.27 2.1 s2.11 3.18 2.11 5.34 c0 1.3733 -0.31334 2.63 -0.94 3.77 s-1.51 2.0366 -2.65 2.69 s-2.4034 0.98 -3.79 0.98 c-1.3733 0 -2.6266 -0.32334 -3.76 -0.97 s-2.02 -1.54 -2.66 -2.68 s-0.96 -2.4034 -0.96 -3.79 c0 -2.1066 0.69 -3.8734 2.07 -5.3 s3.15 -2.14 5.31 -2.14 z M804.6400000000002 12.92 c0 1.6 0.49998 2.94 1.5 4.02 s2.28 1.62 3.84 1.62 c1.5333 0 2.8066 -0.53334 3.82 -1.6 s1.52 -2.4134 1.52 -4.04 c0 -1.6133 -0.5 -2.9566 -1.5 -4.03 s-2.2866 -1.61 -3.86 -1.61 c-1.52 0 -2.7866 0.53334 -3.8 1.6 s-1.52 2.4134 -1.52 4.04 z M835.4200000000002 5.84 l7.8 11.64 l0.04 0 l0 -11.64 l1.92 0 l0 14.16 l-2.44 0 l-7.88 -11.64 l-0.04 0 l0 11.64 l-1.92 0 l0 -14.16 l2.52 0 z M870.5000000000002 5.84 l0 1.8 l-6.98 0 l0 4.44 l6.5 0 l0 1.8 l-6.5 0 l0 6.12 l-1.92 0 l0 -14.16 l8.9 0 z M887.7800000000002 5.84 l0 14.16 l-1.92 0 l0 -14.16 l1.92 0 z M908.9200000000002 5.84 c1.5067 0 2.8134 0.31 3.92 0.93 s1.9533 1.47 2.54 2.55 s0.88 2.28 0.88 3.6 s-0.32666 2.5234 -0.98 3.61 s-1.5667 1.9367 -2.74 2.55 s-2.48 0.92 -3.92 0.92 l-4.74 0 l0 -14.16 l5.04 0 z M908.3200000000003 18.2 c1.08 0 2.07 -0.21002 2.97 -0.63002 s1.6133 -1.0233 2.14 -1.81 s0.79 -1.7333 0.79 -2.84 c0 -1.6 -0.49666 -2.88 -1.49 -3.84 s-2.31 -1.44 -3.95 -1.44 l-2.98 0 l0 10.56 l2.52 0 z M940.9400000000003 5.84 l0 1.8 l-7.22 0 l0 4.22 l6.72 0 l0 1.8 l-6.72 0 l0 4.54 l7.58 0 l0 1.8 l-9.5 0 l0 -14.16 l9.14 0 z M959.3200000000003 5.84 l7.8 11.64 l0.04 0 l0 -11.64 l1.92 0 l0 14.16 l-2.44 0 l-7.88 -11.64 l-0.04 0 l0 11.64 l-1.92 0 l0 -14.16 l2.52 0 z M992.0000000000003 5.48 c1 0 1.9367 0.18664 2.81 0.55998 s1.59 0.92 2.15 1.64 l-1.6 1.22 c-0.86666 -1.08 -2.0066 -1.62 -3.42 -1.62 c-1.5333 0 -2.7966 0.54666 -3.79 1.64 s-1.49 2.4666 -1.49 4.12 c0 1.6 0.49 2.92 1.47 3.96 s2.25 1.56 3.81 1.56 s2.7934 -0.63334 3.7 -1.9 l1.62 1.22 c-0.56 0.74666 -1.3067 1.3467 -2.24 1.8 s-1.9733 0.68 -3.12 0.68 c-1.36 0 -2.5934 -0.33 -3.7 -0.99 s-1.98 -1.5667 -2.62 -2.72 s-0.96 -2.3634 -0.96 -3.63 c0 -2.1866 0.68666 -3.99 2.06 -5.41 s3.1466 -2.13 5.32 -2.13 z M1021.5000000000003 5.84 l0 1.8 l-7.22 0 l0 4.22 l6.72 0 l0 1.8 l-6.72 0 l0 4.54 l7.58 0 l0 1.8 l-9.5 0 l0 -14.16 l9.14 0 z"></path></g>
			</g>
		</svg>
	